<svg xmlns="http://www.w3.org/2000/svg" viewBox="0 0 257.52 28.65"><defs><style>.cls-1{fill:#fff;}</style></defs><title>logo</title><g id="Layer_2" data-name="Layer 2"><g id="Layer_1-2" data-name="Layer 1"><path class="cls-1" d="M16.84,10.38h-.08L10,.49H0V28.14H9.78V19.48c0-.94-.1-2.54-.29-4.82l.12,0,2.32,3.81,4.33,6.34h1.09l4.29-6.34c.47-.7,1.21-2,2.26-3.81l.14,0-.27,4.82v8.65h9.78V.49h-10Z"/><rect class="cls-1" x="37.24" y="0.49" width="9.78" height="27.64"/><path class="cls-1" d="M70.51,8.22c0,1.07.08,2.58.25,4.53l-.08,0L60.5.49H50.72V28.14H60.5V20.32c0-1.17-.1-2.77-.29-4.82l.08,0,10.5,12.67h9.5V.49H70.51Z"/><rect class="cls-1" x="83.98" y="0.49" width="9.78" height="27.64"/><path class="cls-1" d="M114.29,10.38h-.08L107.46.49h-10V28.14h9.78V19.48c0-.94-.1-2.54-.29-4.82l.12,0,2.32,3.81,4.33,6.34h1.09l4.29-6.34c.47-.7,1.21-2,2.26-3.81l.14,0-.27,4.82v8.65H131V.49H121Z"/><polygon class="cls-1" points="156.58 0.49 143.76 0.49 132.97 28.14 144.11 28.14 145.59 23.81 154.73 23.81 156.25 28.14 167.36 28.14 156.58 0.49"/><polygon class="cls-1" points="179.34 0.49 169.33 0.49 169.33 28.14 191.22 28.14 191.22 19.56 179.34 19.56 179.34 0.49"/><rect class="cls-1" x="193.47" y="0.49" width="9.78" height="27.64"/><path class="cls-1" d="M227.31,12.86a14.71,14.71,0,0,0-5.46-1.64c-.47-.08-1.35-.21-2.65-.35s-2.15-.27-2.6-.37a1.08,1.08,0,0,1-1-1.13c0-1.13,1.09-1.68,3.28-1.68a24.39,24.39,0,0,1,8.53,1.46l1.25-7.3A26.16,26.16,0,0,0,218.41,0c-3.79,0-6.85.84-9.13,2.5a8,8,0,0,0-3.42,6.81,8.52,8.52,0,0,0,.76,3.57,5.71,5.71,0,0,0,2.3,2.67,13.24,13.24,0,0,0,5.8,1.72l5.09.66a1.19,1.19,0,0,1,1,1.19c0,1.25-1.37,1.89-4.12,1.89a25.27,25.27,0,0,1-9.15-1.8l-1,7.69a33.43,33.43,0,0,0,11.5,1.76c4.33,0,7.51-.88,9.5-2.62a8.89,8.89,0,0,0,3-7A6.68,6.68,0,0,0,227.31,12.86Z"/><polygon class="cls-1" points="230.92 9.06 239.33 9.06 239.33 28.14 249.11 28.14 249.11 9.06 257.52 9.06 257.52 0.49 230.92 0.49 230.92 9.06"/></g></g></svg>